<mxfile host="app.diagrams.net" modified="2023-12-11T19:24:40.545Z" agent="Mozilla/5.0 (Macintosh; Intel Mac OS X 10_15_7) AppleWebKit/537.36 (KHTML, like Gecko) Chrome/119.0.0.0 Safari/537.36" etag="GP_t5HUH5J_sYyFMT_Fb" version="22.1.7" type="device">
  <diagram id="C5RBs43oDa-KdzZeNtuy" name="Page-1">
    <mxGraphModel dx="4777" dy="1577" grid="1" gridSize="10" guides="1" tooltips="1" connect="1" arrows="1" fold="1" page="1" pageScale="1" pageWidth="827" pageHeight="1169" math="0" shadow="0">
      <root>
        <mxCell id="WIyWlLk6GJQsqaUBKTNV-0" />
        <mxCell id="WIyWlLk6GJQsqaUBKTNV-1" parent="WIyWlLk6GJQsqaUBKTNV-0" />
        <mxCell id="zkfFHV4jXpPFQw0GAbJ--0" value="PolicyPackage" style="swimlane;fontStyle=2;align=center;verticalAlign=top;childLayout=stackLayout;horizontal=1;startSize=26;horizontalStack=0;resizeParent=1;resizeLast=0;collapsible=1;marginBottom=0;rounded=0;shadow=0;strokeWidth=1;" parent="WIyWlLk6GJQsqaUBKTNV-1" vertex="1">
          <mxGeometry x="-750" y="-50" width="160" height="180" as="geometry">
            <mxRectangle x="230" y="140" width="160" height="26" as="alternateBounds" />
          </mxGeometry>
        </mxCell>
        <mxCell id="zkfFHV4jXpPFQw0GAbJ--1" value="#name&#xa;#parent (optional)&#xa;#policy" style="text;align=left;verticalAlign=top;spacingLeft=4;spacingRight=4;overflow=hidden;rotatable=0;points=[[0,0.5],[1,0.5]];portConstraint=eastwest;" parent="zkfFHV4jXpPFQw0GAbJ--0" vertex="1">
          <mxGeometry y="26" width="160" height="34" as="geometry" />
        </mxCell>
        <mxCell id="zkfFHV4jXpPFQw0GAbJ--4" value="" style="line;html=1;strokeWidth=1;align=left;verticalAlign=middle;spacingTop=-1;spacingLeft=3;spacingRight=3;rotatable=0;labelPosition=right;points=[];portConstraint=eastwest;" parent="zkfFHV4jXpPFQw0GAbJ--0" vertex="1">
          <mxGeometry y="60" width="160" height="8" as="geometry" />
        </mxCell>
        <mxCell id="zkfFHV4jXpPFQw0GAbJ--5" value="+get_policy()&#xa;+create_policy()" style="text;align=left;verticalAlign=top;spacingLeft=4;spacingRight=4;overflow=hidden;rotatable=0;points=[[0,0.5],[1,0.5]];portConstraint=eastwest;" parent="zkfFHV4jXpPFQw0GAbJ--0" vertex="1">
          <mxGeometry y="68" width="160" height="60" as="geometry" />
        </mxCell>
        <mxCell id="oMcf6_lDviUb3U5oO1b--11" value="SecurityPolicy(Abstract)" style="swimlane;fontStyle=2;align=center;verticalAlign=top;childLayout=stackLayout;horizontal=1;startSize=26;horizontalStack=0;resizeParent=1;resizeLast=0;collapsible=1;marginBottom=0;rounded=0;shadow=0;strokeWidth=1;" parent="WIyWlLk6GJQsqaUBKTNV-1" vertex="1">
          <mxGeometry x="143" y="320" width="240" height="260" as="geometry">
            <mxRectangle x="230" y="140" width="160" height="26" as="alternateBounds" />
          </mxGeometry>
        </mxCell>
        <mxCell id="oMcf6_lDviUb3U5oO1b--23" value="#user&lt;br&gt;#time_range&lt;br&gt;#action" style="text;html=1;align=center;verticalAlign=middle;resizable=0;points=[];autosize=1;strokeColor=none;fillColor=none;" parent="oMcf6_lDviUb3U5oO1b--11" vertex="1">
          <mxGeometry y="26" width="240" height="60" as="geometry" />
        </mxCell>
        <mxCell id="oMcf6_lDviUb3U5oO1b--13" value="" style="line;html=1;strokeWidth=1;align=left;verticalAlign=middle;spacingTop=-1;spacingLeft=3;spacingRight=3;rotatable=0;labelPosition=right;points=[];portConstraint=eastwest;" parent="oMcf6_lDviUb3U5oO1b--11" vertex="1">
          <mxGeometry y="86" width="240" height="14" as="geometry" />
        </mxCell>
        <mxCell id="oMcf6_lDviUb3U5oO1b--24" value="+get_user()&lt;br&gt;+get_time_range()&lt;br&gt;+get_action()&lt;br&gt;&lt;br&gt;&lt;div&gt;&lt;div&gt;&lt;span style=&quot;background-color: initial;&quot;&gt;+set_user()&lt;/span&gt;&lt;br&gt;&lt;/div&gt;&lt;div&gt;+set_time_range()&lt;/div&gt;&lt;div&gt;+set_action()&lt;/div&gt;&lt;/div&gt;" style="text;html=1;align=center;verticalAlign=middle;resizable=0;points=[];autosize=1;strokeColor=none;fillColor=none;" parent="oMcf6_lDviUb3U5oO1b--11" vertex="1">
          <mxGeometry y="100" width="240" height="110" as="geometry" />
        </mxCell>
        <mxCell id="oMcf6_lDviUb3U5oO1b--15" value="UserSource(Abstract)" style="swimlane;fontStyle=2;align=center;verticalAlign=top;childLayout=stackLayout;horizontal=1;startSize=26;horizontalStack=0;resizeParent=1;resizeLast=0;collapsible=1;marginBottom=0;rounded=0;shadow=0;strokeWidth=1;" parent="WIyWlLk6GJQsqaUBKTNV-1" vertex="1">
          <mxGeometry x="-2407" y="110" width="160" height="200" as="geometry">
            <mxRectangle x="230" y="140" width="160" height="26" as="alternateBounds" />
          </mxGeometry>
        </mxCell>
        <mxCell id="QAnrHoESj-_xnShiMf8R-1" value="TBD" style="text;html=1;align=center;verticalAlign=middle;resizable=0;points=[];autosize=1;strokeColor=none;fillColor=none;" parent="oMcf6_lDviUb3U5oO1b--15" vertex="1">
          <mxGeometry y="26" width="160" height="30" as="geometry" />
        </mxCell>
        <mxCell id="oMcf6_lDviUb3U5oO1b--16" value="" style="line;html=1;strokeWidth=1;align=left;verticalAlign=middle;spacingTop=-1;spacingLeft=3;spacingRight=3;rotatable=0;labelPosition=right;points=[];portConstraint=eastwest;" parent="oMcf6_lDviUb3U5oO1b--15" vertex="1">
          <mxGeometry y="56" width="160" height="44" as="geometry" />
        </mxCell>
        <mxCell id="oMcf6_lDviUb3U5oO1b--19" value="0..1" style="text;html=1;align=center;verticalAlign=middle;resizable=0;points=[];autosize=1;strokeColor=none;fillColor=none;" parent="WIyWlLk6GJQsqaUBKTNV-1" vertex="1">
          <mxGeometry x="-670" y="140" width="40" height="30" as="geometry" />
        </mxCell>
        <mxCell id="oMcf6_lDviUb3U5oO1b--20" value="0..*" style="text;html=1;align=center;verticalAlign=middle;resizable=0;points=[];autosize=1;strokeColor=none;fillColor=none;" parent="WIyWlLk6GJQsqaUBKTNV-1" vertex="1">
          <mxGeometry x="-727.5" y="256" width="40" height="30" as="geometry" />
        </mxCell>
        <mxCell id="oMcf6_lDviUb3U5oO1b--31" value="DeviceObject (Abstract)" style="swimlane;fontStyle=2;align=center;verticalAlign=top;childLayout=stackLayout;horizontal=1;startSize=26;horizontalStack=0;resizeParent=1;resizeLast=0;collapsible=1;marginBottom=0;rounded=0;shadow=0;strokeWidth=1;" parent="WIyWlLk6GJQsqaUBKTNV-1" vertex="1">
          <mxGeometry x="-1964" y="396" width="200" height="342" as="geometry">
            <mxRectangle x="230" y="140" width="160" height="26" as="alternateBounds" />
          </mxGeometry>
        </mxCell>
        <mxCell id="w_f98xdI1Udf6xqhtAm_-20" value="#name&lt;br style=&quot;border-color: var(--border-color);&quot;&gt;#description&lt;br style=&quot;border-color: var(--border-color);&quot;&gt;#override&lt;br style=&quot;border-color: var(--border-color);&quot;&gt;#override_value" style="text;html=1;align=center;verticalAlign=middle;resizable=0;points=[];autosize=1;strokeColor=none;fillColor=none;" parent="oMcf6_lDviUb3U5oO1b--31" vertex="1">
          <mxGeometry y="26" width="200" height="70" as="geometry" />
        </mxCell>
        <mxCell id="oMcf6_lDviUb3U5oO1b--32" value="" style="line;html=1;strokeWidth=1;align=left;verticalAlign=middle;spacingTop=-1;spacingLeft=3;spacingRight=3;rotatable=0;labelPosition=right;points=[];portConstraint=eastwest;" parent="oMcf6_lDviUb3U5oO1b--31" vertex="1">
          <mxGeometry y="96" width="200" height="34" as="geometry" />
        </mxCell>
        <mxCell id="w_f98xdI1Udf6xqhtAm_-21" value="+get_name()&lt;br style=&quot;border-color: var(--border-color);&quot;&gt;+get_description()&lt;br style=&quot;border-color: var(--border-color);&quot;&gt;+get_override()&lt;br style=&quot;border-color: var(--border-color);&quot;&gt;+get_override_value()&lt;br style=&quot;border-color: var(--border-color);&quot;&gt;&lt;br style=&quot;border-color: var(--border-color);&quot;&gt;+set_name()&lt;br style=&quot;border-color: var(--border-color);&quot;&gt;+set_description()&lt;br style=&quot;border-color: var(--border-color);&quot;&gt;+set_override()&lt;br style=&quot;border-color: var(--border-color);&quot;&gt;+set_override_value()" style="text;html=1;align=center;verticalAlign=middle;resizable=0;points=[];autosize=1;strokeColor=none;fillColor=none;" parent="oMcf6_lDviUb3U5oO1b--31" vertex="1">
          <mxGeometry y="130" width="200" height="140" as="geometry" />
        </mxCell>
        <mxCell id="w_f98xdI1Udf6xqhtAm_-145" style="edgeStyle=orthogonalEdgeStyle;rounded=0;orthogonalLoop=1;jettySize=auto;html=1;endArrow=none;endFill=0;" parent="WIyWlLk6GJQsqaUBKTNV-1" edge="1">
          <mxGeometry relative="1" as="geometry">
            <mxPoint x="-2210" y="460" as="targetPoint" />
            <mxPoint x="-2650" y="299.9999999999998" as="sourcePoint" />
            <Array as="points">
              <mxPoint x="-2650" y="460" />
            </Array>
          </mxGeometry>
        </mxCell>
        <mxCell id="oMcf6_lDviUb3U5oO1b--33" value="SecurityZone(Abstract)" style="swimlane;fontStyle=2;align=center;verticalAlign=top;childLayout=stackLayout;horizontal=1;startSize=26;horizontalStack=0;resizeParent=1;resizeLast=0;collapsible=1;marginBottom=0;rounded=0;shadow=0;strokeWidth=1;" parent="WIyWlLk6GJQsqaUBKTNV-1" vertex="1">
          <mxGeometry x="-2737" y="120" width="160" height="180" as="geometry">
            <mxRectangle x="230" y="140" width="160" height="26" as="alternateBounds" />
          </mxGeometry>
        </mxCell>
        <mxCell id="QAnrHoESj-_xnShiMf8R-2" value="#name&lt;br&gt;#mapped_interface" style="text;html=1;align=center;verticalAlign=middle;resizable=0;points=[];autosize=1;strokeColor=none;fillColor=none;" parent="oMcf6_lDviUb3U5oO1b--33" vertex="1">
          <mxGeometry y="26" width="160" height="40" as="geometry" />
        </mxCell>
        <mxCell id="oMcf6_lDviUb3U5oO1b--34" value="" style="line;html=1;strokeWidth=1;align=left;verticalAlign=middle;spacingTop=-1;spacingLeft=3;spacingRight=3;rotatable=0;labelPosition=right;points=[];portConstraint=eastwest;" parent="oMcf6_lDviUb3U5oO1b--33" vertex="1">
          <mxGeometry y="66" width="160" height="14" as="geometry" />
        </mxCell>
        <mxCell id="QAnrHoESj-_xnShiMf8R-3" value="+get_name&lt;br&gt;+get_mapped_interface&lt;br&gt;&lt;br&gt;+set_name&lt;br&gt;+set_mapped_interface" style="text;html=1;align=center;verticalAlign=middle;resizable=0;points=[];autosize=1;strokeColor=none;fillColor=none;" parent="oMcf6_lDviUb3U5oO1b--33" vertex="1">
          <mxGeometry y="80" width="160" height="90" as="geometry" />
        </mxCell>
        <mxCell id="oMcf6_lDviUb3U5oO1b--37" value="Zone is a generic term, can mean either &lt;br&gt;an actual zone or an interface" style="text;html=1;align=center;verticalAlign=middle;resizable=0;points=[];autosize=1;strokeColor=none;fillColor=none;" parent="WIyWlLk6GJQsqaUBKTNV-1" vertex="1">
          <mxGeometry x="-2777" y="60" width="240" height="40" as="geometry" />
        </mxCell>
        <mxCell id="w_f98xdI1Udf6xqhtAm_-68" style="edgeStyle=orthogonalEdgeStyle;rounded=0;orthogonalLoop=1;jettySize=auto;html=1;entryX=0.5;entryY=1;entryDx=0;entryDy=0;endArrow=block;endFill=0;endSize=12;" parent="WIyWlLk6GJQsqaUBKTNV-1" source="oMcf6_lDviUb3U5oO1b--42" target="oMcf6_lDviUb3U5oO1b--31" edge="1">
          <mxGeometry relative="1" as="geometry">
            <Array as="points">
              <mxPoint x="-2198" y="836" />
              <mxPoint x="-1864" y="836" />
            </Array>
          </mxGeometry>
        </mxCell>
        <mxCell id="oMcf6_lDviUb3U5oO1b--42" value="PortObject(Abstract)" style="swimlane;fontStyle=2;align=center;verticalAlign=top;childLayout=stackLayout;horizontal=1;startSize=26;horizontalStack=0;resizeParent=1;resizeLast=0;collapsible=1;marginBottom=0;rounded=0;shadow=0;strokeWidth=1;" parent="WIyWlLk6GJQsqaUBKTNV-1" vertex="1">
          <mxGeometry x="-2290" y="869" width="184" height="190" as="geometry">
            <mxRectangle x="230" y="140" width="160" height="26" as="alternateBounds" />
          </mxGeometry>
        </mxCell>
        <mxCell id="w_f98xdI1Udf6xqhtAm_-45" value="#port_value&lt;br&gt;#protocol_type" style="text;html=1;align=center;verticalAlign=middle;resizable=0;points=[];autosize=1;strokeColor=none;fillColor=none;" parent="oMcf6_lDviUb3U5oO1b--42" vertex="1">
          <mxGeometry y="26" width="184" height="40" as="geometry" />
        </mxCell>
        <mxCell id="oMcf6_lDviUb3U5oO1b--43" value="" style="line;html=1;strokeWidth=1;align=left;verticalAlign=middle;spacingTop=-1;spacingLeft=3;spacingRight=3;rotatable=0;labelPosition=right;points=[];portConstraint=eastwest;" parent="oMcf6_lDviUb3U5oO1b--42" vertex="1">
          <mxGeometry y="66" width="184" height="24" as="geometry" />
        </mxCell>
        <mxCell id="w_f98xdI1Udf6xqhtAm_-46" value="+get_port_value()&lt;br&gt;+get_protocol_type()&lt;br&gt;&lt;br&gt;+set_port_value()&lt;br&gt;+set_protocol_type()" style="text;html=1;align=center;verticalAlign=middle;resizable=0;points=[];autosize=1;strokeColor=none;fillColor=none;" parent="oMcf6_lDviUb3U5oO1b--42" vertex="1">
          <mxGeometry y="90" width="184" height="90" as="geometry" />
        </mxCell>
        <mxCell id="oMcf6_lDviUb3U5oO1b--45" value="L7Application(Abstract)" style="swimlane;fontStyle=2;align=center;verticalAlign=top;childLayout=stackLayout;horizontal=1;startSize=26;horizontalStack=0;resizeParent=1;resizeLast=0;collapsible=1;marginBottom=0;rounded=0;shadow=0;strokeWidth=1;" parent="WIyWlLk6GJQsqaUBKTNV-1" vertex="1">
          <mxGeometry x="-3347" y="120" width="160" height="200" as="geometry">
            <mxRectangle x="230" y="140" width="160" height="26" as="alternateBounds" />
          </mxGeometry>
        </mxCell>
        <mxCell id="QAnrHoESj-_xnShiMf8R-6" value="TBD" style="text;html=1;align=center;verticalAlign=middle;resizable=0;points=[];autosize=1;strokeColor=none;fillColor=none;" parent="oMcf6_lDviUb3U5oO1b--45" vertex="1">
          <mxGeometry y="26" width="160" height="30" as="geometry" />
        </mxCell>
        <mxCell id="oMcf6_lDviUb3U5oO1b--46" value="" style="line;html=1;strokeWidth=1;align=left;verticalAlign=middle;spacingTop=-1;spacingLeft=3;spacingRight=3;rotatable=0;labelPosition=right;points=[];portConstraint=eastwest;" parent="oMcf6_lDviUb3U5oO1b--45" vertex="1">
          <mxGeometry y="56" width="160" height="104" as="geometry" />
        </mxCell>
        <mxCell id="oMcf6_lDviUb3U5oO1b--47" value="URL(Abstract)" style="swimlane;fontStyle=2;align=center;verticalAlign=top;childLayout=stackLayout;horizontal=1;startSize=26;horizontalStack=0;resizeParent=1;resizeLast=0;collapsible=1;marginBottom=0;rounded=0;shadow=0;strokeWidth=1;" parent="WIyWlLk6GJQsqaUBKTNV-1" vertex="1">
          <mxGeometry x="-3040" y="70" width="175" height="250" as="geometry">
            <mxRectangle x="230" y="140" width="160" height="26" as="alternateBounds" />
          </mxGeometry>
        </mxCell>
        <mxCell id="QAnrHoESj-_xnShiMf8R-4" value="#name&lt;br&gt;#type(either category, or url list)&lt;br&gt;#members" style="text;html=1;align=center;verticalAlign=middle;resizable=0;points=[];autosize=1;strokeColor=none;fillColor=none;" parent="oMcf6_lDviUb3U5oO1b--47" vertex="1">
          <mxGeometry y="26" width="175" height="60" as="geometry" />
        </mxCell>
        <mxCell id="oMcf6_lDviUb3U5oO1b--48" value="" style="line;html=1;strokeWidth=1;align=left;verticalAlign=middle;spacingTop=-1;spacingLeft=3;spacingRight=3;rotatable=0;labelPosition=right;points=[];portConstraint=eastwest;" parent="oMcf6_lDviUb3U5oO1b--47" vertex="1">
          <mxGeometry y="86" width="175" height="54" as="geometry" />
        </mxCell>
        <mxCell id="QAnrHoESj-_xnShiMf8R-5" value="+get_name()&lt;br&gt;+get_type()&lt;br&gt;+get_members()&lt;br&gt;&lt;br&gt;+set_name()&lt;br&gt;+set_type()&lt;br&gt;+set_members()" style="text;html=1;align=center;verticalAlign=middle;resizable=0;points=[];autosize=1;strokeColor=none;fillColor=none;" parent="oMcf6_lDviUb3U5oO1b--47" vertex="1">
          <mxGeometry y="140" width="175" height="110" as="geometry" />
        </mxCell>
        <mxCell id="qrXyWgWwudt0a9ODhyte-4" value="L4SecurityPolicy" style="swimlane;fontStyle=2;align=center;verticalAlign=top;childLayout=stackLayout;horizontal=1;startSize=26;horizontalStack=0;resizeParent=1;resizeLast=0;collapsible=1;marginBottom=0;rounded=0;shadow=0;strokeWidth=1;" parent="WIyWlLk6GJQsqaUBKTNV-1" vertex="1">
          <mxGeometry x="123" y="761" width="265" height="187" as="geometry">
            <mxRectangle x="230" y="140" width="160" height="26" as="alternateBounds" />
          </mxGeometry>
        </mxCell>
        <mxCell id="y-twIBLr20vFkghQKfR0-10" value="#source_port&lt;br&gt;#destination_port" style="text;html=1;align=center;verticalAlign=middle;resizable=0;points=[];autosize=1;strokeColor=none;fillColor=none;" parent="qrXyWgWwudt0a9ODhyte-4" vertex="1">
          <mxGeometry y="26" width="265" height="40" as="geometry" />
        </mxCell>
        <mxCell id="qrXyWgWwudt0a9ODhyte-5" value="" style="line;html=1;strokeWidth=1;align=left;verticalAlign=middle;spacingTop=-1;spacingLeft=3;spacingRight=3;rotatable=0;labelPosition=right;points=[];portConstraint=eastwest;" parent="qrXyWgWwudt0a9ODhyte-4" vertex="1">
          <mxGeometry y="66" width="265" height="54" as="geometry" />
        </mxCell>
        <mxCell id="y-twIBLr20vFkghQKfR0-12" value="+get_port()&lt;br&gt;+set_port()" style="text;html=1;align=center;verticalAlign=middle;resizable=0;points=[];autosize=1;strokeColor=none;fillColor=none;" parent="qrXyWgWwudt0a9ODhyte-4" vertex="1">
          <mxGeometry y="120" width="265" height="40" as="geometry" />
        </mxCell>
        <mxCell id="y-twIBLr20vFkghQKfR0-7" value="L7SecurityPolicy" style="swimlane;fontStyle=2;align=center;verticalAlign=top;childLayout=stackLayout;horizontal=1;startSize=26;horizontalStack=0;resizeParent=1;resizeLast=0;collapsible=1;marginBottom=0;rounded=0;shadow=0;strokeWidth=1;" parent="WIyWlLk6GJQsqaUBKTNV-1" vertex="1">
          <mxGeometry x="123" y="1051" width="265" height="170" as="geometry">
            <mxRectangle x="230" y="140" width="160" height="26" as="alternateBounds" />
          </mxGeometry>
        </mxCell>
        <mxCell id="y-twIBLr20vFkghQKfR0-13" value="#custom_url_list&lt;br&gt;#url_category&lt;br&gt;#l7_application" style="text;html=1;align=center;verticalAlign=middle;resizable=0;points=[];autosize=1;strokeColor=none;fillColor=none;" parent="y-twIBLr20vFkghQKfR0-7" vertex="1">
          <mxGeometry y="26" width="265" height="60" as="geometry" />
        </mxCell>
        <mxCell id="y-twIBLr20vFkghQKfR0-19" value="" style="line;html=1;strokeWidth=1;align=left;verticalAlign=middle;spacingTop=-1;spacingLeft=3;spacingRight=3;rotatable=0;labelPosition=right;points=[];portConstraint=eastwest;" parent="y-twIBLr20vFkghQKfR0-7" vertex="1">
          <mxGeometry y="86" width="265" height="10" as="geometry" />
        </mxCell>
        <mxCell id="y-twIBLr20vFkghQKfR0-17" value="+get_custom_url_list()&lt;br&gt;+get_url_category()&lt;br&gt;+get_l7_application()" style="text;html=1;align=center;verticalAlign=middle;resizable=0;points=[];autosize=1;strokeColor=none;fillColor=none;" parent="y-twIBLr20vFkghQKfR0-7" vertex="1">
          <mxGeometry y="96" width="265" height="60" as="geometry" />
        </mxCell>
        <mxCell id="y-twIBLr20vFkghQKfR0-9" style="edgeStyle=orthogonalEdgeStyle;rounded=0;orthogonalLoop=1;jettySize=auto;html=1;exitX=0.5;exitY=0;exitDx=0;exitDy=0;endArrow=block;endFill=0;endSize=10;entryX=0.5;entryY=1;entryDx=0;entryDy=0;" parent="WIyWlLk6GJQsqaUBKTNV-1" source="y-twIBLr20vFkghQKfR0-7" target="qrXyWgWwudt0a9ODhyte-4" edge="1">
          <mxGeometry relative="1" as="geometry">
            <mxPoint x="256.5" y="1058" as="targetPoint" />
            <mxPoint x="255.5" y="1132" as="sourcePoint" />
          </mxGeometry>
        </mxCell>
        <mxCell id="y-twIBLr20vFkghQKfR0-21" style="edgeStyle=orthogonalEdgeStyle;rounded=0;orthogonalLoop=1;jettySize=auto;html=1;endArrow=diamondThin;endFill=0;strokeWidth=1;endSize=17;entryX=-0.002;entryY=0.071;entryDx=0;entryDy=0;entryPerimeter=0;exitX=0.985;exitY=-0.022;exitDx=0;exitDy=0;exitPerimeter=0;" parent="WIyWlLk6GJQsqaUBKTNV-1" source="w_f98xdI1Udf6xqhtAm_-21" target="w_f98xdI1Udf6xqhtAm_-11" edge="1">
          <mxGeometry relative="1" as="geometry">
            <mxPoint x="-1166.88" y="519.6599999999999" as="targetPoint" />
            <Array as="points" />
            <mxPoint x="-1860" y="520" as="sourcePoint" />
          </mxGeometry>
        </mxCell>
        <mxCell id="y-twIBLr20vFkghQKfR0-22" style="edgeStyle=orthogonalEdgeStyle;rounded=0;orthogonalLoop=1;jettySize=auto;html=1;exitX=0.529;exitY=0;exitDx=0;exitDy=0;endArrow=block;endFill=0;endSize=10;exitPerimeter=0;" parent="WIyWlLk6GJQsqaUBKTNV-1" source="qrXyWgWwudt0a9ODhyte-4" edge="1">
          <mxGeometry relative="1" as="geometry">
            <mxPoint x="263" y="584" as="targetPoint" />
            <mxPoint x="255.5" y="704" as="sourcePoint" />
          </mxGeometry>
        </mxCell>
        <mxCell id="y-twIBLr20vFkghQKfR0-32" style="edgeStyle=orthogonalEdgeStyle;rounded=0;orthogonalLoop=1;jettySize=auto;html=1;exitX=1;exitY=0.5;exitDx=0;exitDy=0;entryX=0.5;entryY=1;entryDx=0;entryDy=0;endArrow=block;endFill=0;strokeWidth=1;endSize=12;" parent="WIyWlLk6GJQsqaUBKTNV-1" source="y-twIBLr20vFkghQKfR0-23" edge="1">
          <mxGeometry relative="1" as="geometry">
            <mxPoint x="-4.5" y="1364" as="sourcePoint" />
            <mxPoint x="256" y="1224" as="targetPoint" />
          </mxGeometry>
        </mxCell>
        <mxCell id="y-twIBLr20vFkghQKfR0-23" value="PANMCSecurityPolicy" style="swimlane;fontStyle=2;align=center;verticalAlign=top;childLayout=stackLayout;horizontal=1;startSize=26;horizontalStack=0;resizeParent=1;resizeLast=0;collapsible=1;marginBottom=0;rounded=0;shadow=0;strokeWidth=1;" parent="WIyWlLk6GJQsqaUBKTNV-1" vertex="1">
          <mxGeometry x="-190" y="1264" width="265" height="200" as="geometry">
            <mxRectangle x="230" y="140" width="160" height="26" as="alternateBounds" />
          </mxGeometry>
        </mxCell>
        <mxCell id="w_f98xdI1Udf6xqhtAm_-3" value="#tag&lt;br&gt;#section&lt;br&gt;#security_profile" style="text;html=1;align=center;verticalAlign=middle;resizable=0;points=[];autosize=1;strokeColor=none;fillColor=none;" parent="y-twIBLr20vFkghQKfR0-23" vertex="1">
          <mxGeometry y="26" width="265" height="60" as="geometry" />
        </mxCell>
        <mxCell id="w_f98xdI1Udf6xqhtAm_-2" value="" style="line;html=1;strokeWidth=1;align=left;verticalAlign=middle;spacingTop=-1;spacingLeft=3;spacingRight=3;rotatable=0;labelPosition=right;points=[];portConstraint=eastwest;" parent="y-twIBLr20vFkghQKfR0-23" vertex="1">
          <mxGeometry y="86" width="265" height="24" as="geometry" />
        </mxCell>
        <mxCell id="w_f98xdI1Udf6xqhtAm_-4" value="+get_tag()&lt;br&gt;+get_section()&lt;br&gt;&lt;br&gt;+set_tag()&lt;br&gt;+set_section()" style="text;html=1;align=center;verticalAlign=middle;resizable=0;points=[];autosize=1;strokeColor=none;fillColor=none;" parent="y-twIBLr20vFkghQKfR0-23" vertex="1">
          <mxGeometry y="110" width="265" height="90" as="geometry" />
        </mxCell>
        <mxCell id="y-twIBLr20vFkghQKfR0-33" style="edgeStyle=orthogonalEdgeStyle;rounded=0;orthogonalLoop=1;jettySize=auto;html=1;endArrow=none;endFill=0;" parent="WIyWlLk6GJQsqaUBKTNV-1" edge="1">
          <mxGeometry relative="1" as="geometry">
            <mxPoint x="253" y="1364" as="targetPoint" />
            <mxPoint x="440" y="1364" as="sourcePoint" />
            <Array as="points">
              <mxPoint x="313" y="1363.86" />
              <mxPoint x="313" y="1363.86" />
            </Array>
          </mxGeometry>
        </mxCell>
        <mxCell id="y-twIBLr20vFkghQKfR0-27" value="FMCSecurityPolicy" style="swimlane;fontStyle=2;align=center;verticalAlign=top;childLayout=stackLayout;horizontal=1;startSize=26;horizontalStack=0;resizeParent=1;resizeLast=0;collapsible=1;marginBottom=0;rounded=0;shadow=0;strokeWidth=1;" parent="WIyWlLk6GJQsqaUBKTNV-1" vertex="1">
          <mxGeometry x="440" y="1269" width="265" height="190" as="geometry">
            <mxRectangle x="230" y="140" width="160" height="26" as="alternateBounds" />
          </mxGeometry>
        </mxCell>
        <mxCell id="w_f98xdI1Udf6xqhtAm_-5" value="#category&lt;br&gt;#section" style="text;html=1;align=center;verticalAlign=middle;resizable=0;points=[];autosize=1;strokeColor=none;fillColor=none;" parent="y-twIBLr20vFkghQKfR0-27" vertex="1">
          <mxGeometry y="26" width="265" height="40" as="geometry" />
        </mxCell>
        <mxCell id="y-twIBLr20vFkghQKfR0-29" value="" style="line;html=1;strokeWidth=1;align=left;verticalAlign=middle;spacingTop=-1;spacingLeft=3;spacingRight=3;rotatable=0;labelPosition=right;points=[];portConstraint=eastwest;" parent="y-twIBLr20vFkghQKfR0-27" vertex="1">
          <mxGeometry y="66" width="265" height="34" as="geometry" />
        </mxCell>
        <mxCell id="w_f98xdI1Udf6xqhtAm_-6" value="+get_category()&lt;br&gt;+get_section()&lt;br&gt;&lt;br&gt;+set_category()&lt;br&gt;+set_section()" style="text;html=1;align=center;verticalAlign=middle;resizable=0;points=[];autosize=1;strokeColor=none;fillColor=none;" parent="y-twIBLr20vFkghQKfR0-27" vertex="1">
          <mxGeometry y="100" width="265" height="90" as="geometry" />
        </mxCell>
        <mxCell id="y-twIBLr20vFkghQKfR0-34" value="0..*" style="text;html=1;align=center;verticalAlign=middle;resizable=0;points=[];autosize=1;strokeColor=none;fillColor=none;" parent="WIyWlLk6GJQsqaUBKTNV-1" vertex="1">
          <mxGeometry x="-1764" y="485" width="40" height="30" as="geometry" />
        </mxCell>
        <mxCell id="y-twIBLr20vFkghQKfR0-35" value="0..*" style="text;html=1;align=center;verticalAlign=middle;resizable=0;points=[];autosize=1;strokeColor=none;fillColor=none;" parent="WIyWlLk6GJQsqaUBKTNV-1" vertex="1">
          <mxGeometry x="-838" y="522" width="40" height="30" as="geometry" />
        </mxCell>
        <mxCell id="w_f98xdI1Udf6xqhtAm_-17" style="edgeStyle=orthogonalEdgeStyle;rounded=0;orthogonalLoop=1;jettySize=auto;html=1;endSize=9;endArrow=none;endFill=0;startArrow=block;startFill=0;startSize=12;entryX=0.012;entryY=1.023;entryDx=0;entryDy=0;entryPerimeter=0;" parent="WIyWlLk6GJQsqaUBKTNV-1" source="w_f98xdI1Udf6xqhtAm_-8" target="oMcf6_lDviUb3U5oO1b--24" edge="1">
          <mxGeometry relative="1" as="geometry">
            <mxPoint y="527" as="targetPoint" />
          </mxGeometry>
        </mxCell>
        <mxCell id="w_f98xdI1Udf6xqhtAm_-8" value="Policy(Abstract)" style="swimlane;fontStyle=2;align=center;verticalAlign=top;childLayout=stackLayout;horizontal=1;startSize=26;horizontalStack=0;resizeParent=1;resizeLast=0;collapsible=1;marginBottom=0;rounded=0;shadow=0;strokeWidth=1;" parent="WIyWlLk6GJQsqaUBKTNV-1" vertex="1">
          <mxGeometry x="-790" y="300" width="240" height="480" as="geometry">
            <mxRectangle x="230" y="140" width="160" height="26" as="alternateBounds" />
          </mxGeometry>
        </mxCell>
        <mxCell id="w_f98xdI1Udf6xqhtAm_-9" value="#name&lt;br&gt;#type&lt;br&gt;#status&lt;br&gt;#source_zone (or interface)&lt;br&gt;#destination_zone (or interface)&lt;br&gt;#source_network&lt;br&gt;#destination_network&lt;br&gt;#hitcount&lt;br&gt;#description&lt;br&gt;#log_setting&lt;br&gt;#policy_package" style="text;html=1;align=center;verticalAlign=middle;resizable=0;points=[];autosize=1;strokeColor=none;fillColor=none;" parent="w_f98xdI1Udf6xqhtAm_-8" vertex="1">
          <mxGeometry y="26" width="240" height="170" as="geometry" />
        </mxCell>
        <mxCell id="w_f98xdI1Udf6xqhtAm_-10" value="" style="line;html=1;strokeWidth=1;align=left;verticalAlign=middle;spacingTop=-1;spacingLeft=3;spacingRight=3;rotatable=0;labelPosition=right;points=[];portConstraint=eastwest;" parent="w_f98xdI1Udf6xqhtAm_-8" vertex="1">
          <mxGeometry y="196" width="240" height="14" as="geometry" />
        </mxCell>
        <mxCell id="w_f98xdI1Udf6xqhtAm_-11" value="+get_name()&lt;br&gt;+get_type()&lt;br&gt;+get_status()&lt;br&gt;+get_zone()&lt;br&gt;+get_network()&lt;br&gt;+get_hitcount()&lt;br&gt;+get_description()&lt;br&gt;+get_log_setting()&lt;br&gt;+get_policy_package()&lt;br&gt;&lt;br&gt;&lt;div&gt;&lt;div&gt;+set_name()&lt;/div&gt;&lt;div&gt;+set_type()&lt;/div&gt;&lt;div&gt;+set_status()&lt;/div&gt;&lt;div&gt;+set_zone()&lt;/div&gt;&lt;div&gt;+set_network()&lt;/div&gt;&lt;div&gt;+set_description()&lt;/div&gt;&lt;/div&gt;&lt;div&gt;+set_log_setting()&lt;/div&gt;&lt;div&gt;+set_policy_package()&lt;/div&gt;" style="text;html=1;align=center;verticalAlign=middle;resizable=0;points=[];autosize=1;strokeColor=none;fillColor=none;" parent="w_f98xdI1Udf6xqhtAm_-8" vertex="1">
          <mxGeometry y="210" width="240" height="270" as="geometry" />
        </mxCell>
        <mxCell id="w_f98xdI1Udf6xqhtAm_-150" style="edgeStyle=orthogonalEdgeStyle;rounded=0;orthogonalLoop=1;jettySize=auto;html=1;entryX=0;entryY=0.5;entryDx=0;entryDy=0;endArrow=none;endFill=0;startArrow=block;startFill=0;endSize=20;startSize=12;" parent="WIyWlLk6GJQsqaUBKTNV-1" source="w_f98xdI1Udf6xqhtAm_-12" target="w_f98xdI1Udf6xqhtAm_-148" edge="1">
          <mxGeometry relative="1" as="geometry">
            <Array as="points">
              <mxPoint x="-670" y="1394" />
            </Array>
          </mxGeometry>
        </mxCell>
        <mxCell id="w_f98xdI1Udf6xqhtAm_-12" value="NATPolicy(Abstract)" style="swimlane;fontStyle=2;align=center;verticalAlign=top;childLayout=stackLayout;horizontal=1;startSize=26;horizontalStack=0;resizeParent=1;resizeLast=0;collapsible=1;marginBottom=0;rounded=0;shadow=0;strokeWidth=1;" parent="WIyWlLk6GJQsqaUBKTNV-1" vertex="1">
          <mxGeometry x="-790" y="904" width="240" height="260" as="geometry">
            <mxRectangle x="230" y="140" width="160" height="26" as="alternateBounds" />
          </mxGeometry>
        </mxCell>
        <mxCell id="w_f98xdI1Udf6xqhtAm_-14" value="" style="line;html=1;strokeWidth=1;align=left;verticalAlign=middle;spacingTop=-1;spacingLeft=3;spacingRight=3;rotatable=0;labelPosition=right;points=[];portConstraint=eastwest;" parent="w_f98xdI1Udf6xqhtAm_-12" vertex="1">
          <mxGeometry y="26" width="240" height="14" as="geometry" />
        </mxCell>
        <mxCell id="w_f98xdI1Udf6xqhtAm_-16" style="edgeStyle=orthogonalEdgeStyle;rounded=0;orthogonalLoop=1;jettySize=auto;html=1;endArrow=diamondThin;endFill=0;strokeWidth=1;endSize=17;exitX=0.494;exitY=0;exitDx=0;exitDy=0;exitPerimeter=0;" parent="WIyWlLk6GJQsqaUBKTNV-1" source="w_f98xdI1Udf6xqhtAm_-8" edge="1">
          <mxGeometry relative="1" as="geometry">
            <mxPoint x="-671.43" y="130.00000000000003" as="targetPoint" />
            <Array as="points" />
            <mxPoint x="-671.1800000000003" y="287.0399999999995" as="sourcePoint" />
          </mxGeometry>
        </mxCell>
        <mxCell id="w_f98xdI1Udf6xqhtAm_-69" style="edgeStyle=orthogonalEdgeStyle;rounded=0;orthogonalLoop=1;jettySize=auto;html=1;endArrow=none;endFill=0;" parent="WIyWlLk6GJQsqaUBKTNV-1" edge="1">
          <mxGeometry relative="1" as="geometry">
            <mxPoint x="-1864" y="836" as="targetPoint" />
            <mxPoint x="-1864.11" y="869" as="sourcePoint" />
          </mxGeometry>
        </mxCell>
        <mxCell id="w_f98xdI1Udf6xqhtAm_-26" value="GroupObject(Abstract)" style="swimlane;fontStyle=2;align=center;verticalAlign=top;childLayout=stackLayout;horizontal=1;startSize=26;horizontalStack=0;resizeParent=1;resizeLast=0;collapsible=1;marginBottom=0;rounded=0;shadow=0;strokeWidth=1;" parent="WIyWlLk6GJQsqaUBKTNV-1" vertex="1">
          <mxGeometry x="-1962.5" y="869" width="197" height="217" as="geometry">
            <mxRectangle x="230" y="140" width="160" height="26" as="alternateBounds" />
          </mxGeometry>
        </mxCell>
        <mxCell id="w_f98xdI1Udf6xqhtAm_-76" value="#member" style="text;html=1;align=center;verticalAlign=middle;resizable=0;points=[];autosize=1;strokeColor=none;fillColor=none;" parent="w_f98xdI1Udf6xqhtAm_-26" vertex="1">
          <mxGeometry y="26" width="197" height="30" as="geometry" />
        </mxCell>
        <mxCell id="w_f98xdI1Udf6xqhtAm_-27" value="" style="line;html=1;strokeWidth=1;align=left;verticalAlign=middle;spacingTop=-1;spacingLeft=3;spacingRight=3;rotatable=0;labelPosition=right;points=[];portConstraint=eastwest;" parent="w_f98xdI1Udf6xqhtAm_-26" vertex="1">
          <mxGeometry y="56" width="197" height="24" as="geometry" />
        </mxCell>
        <mxCell id="w_f98xdI1Udf6xqhtAm_-77" value="+get_member()&lt;br&gt;+set_member()" style="text;html=1;align=center;verticalAlign=middle;resizable=0;points=[];autosize=1;strokeColor=none;fillColor=none;" parent="w_f98xdI1Udf6xqhtAm_-26" vertex="1">
          <mxGeometry y="80" width="197" height="40" as="geometry" />
        </mxCell>
        <mxCell id="w_f98xdI1Udf6xqhtAm_-70" style="edgeStyle=orthogonalEdgeStyle;rounded=0;orthogonalLoop=1;jettySize=auto;html=1;endArrow=none;endFill=0;" parent="WIyWlLk6GJQsqaUBKTNV-1" source="w_f98xdI1Udf6xqhtAm_-38" edge="1">
          <mxGeometry relative="1" as="geometry">
            <mxPoint x="-1870" y="836" as="targetPoint" />
            <Array as="points">
              <mxPoint x="-1540" y="836" />
            </Array>
          </mxGeometry>
        </mxCell>
        <mxCell id="w_f98xdI1Udf6xqhtAm_-38" value="NetworkObject(Abstract)" style="swimlane;fontStyle=2;align=center;verticalAlign=top;childLayout=stackLayout;horizontal=1;startSize=26;horizontalStack=0;resizeParent=1;resizeLast=0;collapsible=1;marginBottom=0;rounded=0;shadow=0;strokeWidth=1;" parent="WIyWlLk6GJQsqaUBKTNV-1" vertex="1">
          <mxGeometry x="-1640" y="869" width="200" height="190" as="geometry">
            <mxRectangle x="-1665" y="800" width="160" height="26" as="alternateBounds" />
          </mxGeometry>
        </mxCell>
        <mxCell id="w_f98xdI1Udf6xqhtAm_-40" value="#network_value&lt;br&gt;#network_type" style="text;html=1;align=center;verticalAlign=middle;resizable=0;points=[];autosize=1;strokeColor=none;fillColor=none;" parent="w_f98xdI1Udf6xqhtAm_-38" vertex="1">
          <mxGeometry y="26" width="200" height="40" as="geometry" />
        </mxCell>
        <mxCell id="w_f98xdI1Udf6xqhtAm_-97" style="edgeStyle=orthogonalEdgeStyle;rounded=0;orthogonalLoop=1;jettySize=auto;html=1;endArrow=none;endFill=0;startArrow=block;startFill=0;startSize=12;" parent="w_f98xdI1Udf6xqhtAm_-38" source="w_f98xdI1Udf6xqhtAm_-39" edge="1">
          <mxGeometry relative="1" as="geometry">
            <mxPoint x="380" y="73" as="targetPoint" />
          </mxGeometry>
        </mxCell>
        <mxCell id="w_f98xdI1Udf6xqhtAm_-39" value="" style="line;html=1;strokeWidth=1;align=left;verticalAlign=middle;spacingTop=-1;spacingLeft=3;spacingRight=3;rotatable=0;labelPosition=right;points=[];portConstraint=eastwest;" parent="w_f98xdI1Udf6xqhtAm_-38" vertex="1">
          <mxGeometry y="66" width="200" height="14" as="geometry" />
        </mxCell>
        <mxCell id="w_f98xdI1Udf6xqhtAm_-41" value="+get_network_value()&lt;br&gt;+get_network_type()&lt;br&gt;&lt;br&gt;+set_network_value()&lt;br&gt;+set_network_type()" style="text;html=1;align=center;verticalAlign=middle;resizable=0;points=[];autosize=1;strokeColor=none;fillColor=none;" parent="w_f98xdI1Udf6xqhtAm_-38" vertex="1">
          <mxGeometry y="80" width="200" height="90" as="geometry" />
        </mxCell>
        <mxCell id="w_f98xdI1Udf6xqhtAm_-73" style="edgeStyle=orthogonalEdgeStyle;rounded=0;orthogonalLoop=1;jettySize=auto;html=1;exitX=0.5;exitY=0;exitDx=0;exitDy=0;endArrow=none;endFill=0;" parent="WIyWlLk6GJQsqaUBKTNV-1" source="w_f98xdI1Udf6xqhtAm_-49" edge="1">
          <mxGeometry relative="1" as="geometry">
            <mxPoint x="-1864" y="1106" as="targetPoint" />
            <Array as="points">
              <mxPoint x="-1590" y="1229" />
              <mxPoint x="-1590" y="1168" />
              <mxPoint x="-1864" y="1168" />
            </Array>
          </mxGeometry>
        </mxCell>
        <mxCell id="w_f98xdI1Udf6xqhtAm_-80" style="edgeStyle=orthogonalEdgeStyle;rounded=0;orthogonalLoop=1;jettySize=auto;html=1;entryX=0.5;entryY=1;entryDx=0;entryDy=0;endSize=12;endArrow=none;endFill=0;startArrow=diamondThin;startFill=0;startSize=12;" parent="WIyWlLk6GJQsqaUBKTNV-1" source="w_f98xdI1Udf6xqhtAm_-49" target="w_f98xdI1Udf6xqhtAm_-38" edge="1">
          <mxGeometry relative="1" as="geometry" />
        </mxCell>
        <mxCell id="w_f98xdI1Udf6xqhtAm_-95" style="edgeStyle=orthogonalEdgeStyle;rounded=0;orthogonalLoop=1;jettySize=auto;html=1;entryX=1;entryY=0.5;entryDx=0;entryDy=0;endArrow=none;endFill=0;startArrow=block;startFill=0;targetPerimeterSpacing=12;" parent="WIyWlLk6GJQsqaUBKTNV-1" source="w_f98xdI1Udf6xqhtAm_-49" target="w_f98xdI1Udf6xqhtAm_-93" edge="1">
          <mxGeometry relative="1" as="geometry" />
        </mxCell>
        <mxCell id="w_f98xdI1Udf6xqhtAm_-49" value="NetworkGroupObject(Abstract)" style="swimlane;fontStyle=2;align=center;verticalAlign=top;childLayout=stackLayout;horizontal=1;startSize=26;horizontalStack=0;resizeParent=1;resizeLast=0;collapsible=1;marginBottom=0;rounded=0;shadow=0;strokeWidth=1;" parent="WIyWlLk6GJQsqaUBKTNV-1" vertex="1">
          <mxGeometry x="-1645" y="1229" width="210" height="210" as="geometry">
            <mxRectangle x="230" y="140" width="160" height="26" as="alternateBounds" />
          </mxGeometry>
        </mxCell>
        <mxCell id="w_f98xdI1Udf6xqhtAm_-50" value="" style="line;html=1;strokeWidth=1;align=left;verticalAlign=middle;spacingTop=-1;spacingLeft=3;spacingRight=3;rotatable=0;labelPosition=right;points=[];portConstraint=eastwest;" parent="w_f98xdI1Udf6xqhtAm_-49" vertex="1">
          <mxGeometry y="26" width="210" height="8" as="geometry" />
        </mxCell>
        <mxCell id="w_f98xdI1Udf6xqhtAm_-78" style="edgeStyle=orthogonalEdgeStyle;rounded=0;orthogonalLoop=1;jettySize=auto;html=1;entryX=0.5;entryY=1;entryDx=0;entryDy=0;endArrow=block;endFill=0;strokeWidth=1;endSize=12;" parent="WIyWlLk6GJQsqaUBKTNV-1" target="w_f98xdI1Udf6xqhtAm_-26" edge="1">
          <mxGeometry relative="1" as="geometry">
            <mxPoint x="-2140" y="1246" as="sourcePoint" />
            <Array as="points">
              <mxPoint x="-2140" y="1166" />
              <mxPoint x="-1864" y="1166" />
            </Array>
          </mxGeometry>
        </mxCell>
        <mxCell id="w_f98xdI1Udf6xqhtAm_-106" style="edgeStyle=orthogonalEdgeStyle;rounded=0;orthogonalLoop=1;jettySize=auto;html=1;entryX=1;entryY=0.5;entryDx=0;entryDy=0;startArrow=block;startFill=0;endSize=8;startSize=10;endArrow=none;endFill=0;" parent="WIyWlLk6GJQsqaUBKTNV-1" source="w_f98xdI1Udf6xqhtAm_-51" target="w_f98xdI1Udf6xqhtAm_-101" edge="1">
          <mxGeometry relative="1" as="geometry" />
        </mxCell>
        <mxCell id="w_f98xdI1Udf6xqhtAm_-51" value="PortGroupObject(Abstract)" style="swimlane;fontStyle=2;align=center;verticalAlign=top;childLayout=stackLayout;horizontal=1;startSize=26;horizontalStack=0;resizeParent=1;resizeLast=0;collapsible=1;marginBottom=0;rounded=0;shadow=0;strokeWidth=1;" parent="WIyWlLk6GJQsqaUBKTNV-1" vertex="1">
          <mxGeometry x="-2303" y="1249" width="210" height="210" as="geometry">
            <mxRectangle x="230" y="140" width="160" height="26" as="alternateBounds" />
          </mxGeometry>
        </mxCell>
        <mxCell id="w_f98xdI1Udf6xqhtAm_-52" value="" style="line;html=1;strokeWidth=1;align=left;verticalAlign=middle;spacingTop=-1;spacingLeft=3;spacingRight=3;rotatable=0;labelPosition=right;points=[];portConstraint=eastwest;" parent="w_f98xdI1Udf6xqhtAm_-51" vertex="1">
          <mxGeometry y="26" width="210" height="8" as="geometry" />
        </mxCell>
        <mxCell id="w_f98xdI1Udf6xqhtAm_-71" style="edgeStyle=orthogonalEdgeStyle;rounded=0;orthogonalLoop=1;jettySize=auto;html=1;entryX=0.5;entryY=0;entryDx=0;entryDy=0;endArrow=diamondThin;endFill=0;strokeColor=default;strokeWidth=1;startArrow=none;startFill=0;endSize=12;" parent="WIyWlLk6GJQsqaUBKTNV-1" source="oMcf6_lDviUb3U5oO1b--42" target="w_f98xdI1Udf6xqhtAm_-51" edge="1">
          <mxGeometry relative="1" as="geometry">
            <Array as="points" />
          </mxGeometry>
        </mxCell>
        <mxCell id="w_f98xdI1Udf6xqhtAm_-81" value="0..*" style="text;html=1;align=center;verticalAlign=middle;resizable=0;points=[];autosize=1;strokeColor=none;fillColor=none;" parent="WIyWlLk6GJQsqaUBKTNV-1" vertex="1">
          <mxGeometry x="-2250" y="1216" width="40" height="30" as="geometry" />
        </mxCell>
        <mxCell id="w_f98xdI1Udf6xqhtAm_-82" value="1..*" style="text;html=1;align=center;verticalAlign=middle;resizable=0;points=[];autosize=1;strokeColor=none;fillColor=none;" parent="WIyWlLk6GJQsqaUBKTNV-1" vertex="1">
          <mxGeometry x="-2200" y="1066" width="40" height="30" as="geometry" />
        </mxCell>
        <mxCell id="w_f98xdI1Udf6xqhtAm_-83" value="0..*" style="text;html=1;align=center;verticalAlign=middle;resizable=0;points=[];autosize=1;strokeColor=none;fillColor=none;" parent="WIyWlLk6GJQsqaUBKTNV-1" vertex="1">
          <mxGeometry x="-2250" y="1216" width="40" height="30" as="geometry" />
        </mxCell>
        <mxCell id="w_f98xdI1Udf6xqhtAm_-84" value="0..*" style="text;html=1;align=center;verticalAlign=middle;resizable=0;points=[];autosize=1;strokeColor=none;fillColor=none;" parent="WIyWlLk6GJQsqaUBKTNV-1" vertex="1">
          <mxGeometry x="-1580" y="1199" width="40" height="30" as="geometry" />
        </mxCell>
        <mxCell id="w_f98xdI1Udf6xqhtAm_-85" value="1..*" style="text;html=1;align=center;verticalAlign=middle;resizable=0;points=[];autosize=1;strokeColor=none;fillColor=none;" parent="WIyWlLk6GJQsqaUBKTNV-1" vertex="1">
          <mxGeometry x="-1530" y="1066" width="40" height="30" as="geometry" />
        </mxCell>
        <mxCell id="w_f98xdI1Udf6xqhtAm_-96" style="edgeStyle=orthogonalEdgeStyle;rounded=0;orthogonalLoop=1;jettySize=auto;html=1;endArrow=none;endFill=0;" parent="WIyWlLk6GJQsqaUBKTNV-1" source="w_f98xdI1Udf6xqhtAm_-87" edge="1">
          <mxGeometry relative="1" as="geometry">
            <mxPoint x="-1720" y="1590.9999999999995" as="targetPoint" />
          </mxGeometry>
        </mxCell>
        <mxCell id="w_f98xdI1Udf6xqhtAm_-87" value="PANetworkGroupObject" style="swimlane;fontStyle=2;align=center;verticalAlign=top;childLayout=stackLayout;horizontal=1;startSize=26;horizontalStack=0;resizeParent=1;resizeLast=0;collapsible=1;marginBottom=0;rounded=0;shadow=0;strokeWidth=1;" parent="WIyWlLk6GJQsqaUBKTNV-1" vertex="1">
          <mxGeometry x="-2010" y="1486" width="210" height="210" as="geometry">
            <mxRectangle x="230" y="140" width="160" height="26" as="alternateBounds" />
          </mxGeometry>
        </mxCell>
        <mxCell id="w_f98xdI1Udf6xqhtAm_-88" value="" style="line;html=1;strokeWidth=1;align=left;verticalAlign=middle;spacingTop=-1;spacingLeft=3;spacingRight=3;rotatable=0;labelPosition=right;points=[];portConstraint=eastwest;" parent="w_f98xdI1Udf6xqhtAm_-87" vertex="1">
          <mxGeometry y="26" width="210" height="8" as="geometry" />
        </mxCell>
        <mxCell id="w_f98xdI1Udf6xqhtAm_-89" value="PANMCNetworkObject" style="swimlane;fontStyle=2;align=center;verticalAlign=top;childLayout=stackLayout;horizontal=1;startSize=26;horizontalStack=0;resizeParent=1;resizeLast=0;collapsible=1;marginBottom=0;rounded=0;shadow=0;strokeWidth=1;" parent="WIyWlLk6GJQsqaUBKTNV-1" vertex="1">
          <mxGeometry x="-1260" y="869" width="200" height="190" as="geometry">
            <mxRectangle x="-1665" y="800" width="160" height="26" as="alternateBounds" />
          </mxGeometry>
        </mxCell>
        <mxCell id="w_f98xdI1Udf6xqhtAm_-91" value="" style="line;html=1;strokeWidth=1;align=left;verticalAlign=middle;spacingTop=-1;spacingLeft=3;spacingRight=3;rotatable=0;labelPosition=right;points=[];portConstraint=eastwest;" parent="w_f98xdI1Udf6xqhtAm_-89" vertex="1">
          <mxGeometry y="26" width="200" height="14" as="geometry" />
        </mxCell>
        <mxCell id="w_f98xdI1Udf6xqhtAm_-93" value="CiscoNetworkGroupObject" style="swimlane;fontStyle=2;align=center;verticalAlign=top;childLayout=stackLayout;horizontal=1;startSize=26;horizontalStack=0;resizeParent=1;resizeLast=0;collapsible=1;marginBottom=0;rounded=0;shadow=0;strokeWidth=1;" parent="WIyWlLk6GJQsqaUBKTNV-1" vertex="1">
          <mxGeometry x="-2010" y="1756" width="210" height="210" as="geometry">
            <mxRectangle x="230" y="140" width="160" height="26" as="alternateBounds" />
          </mxGeometry>
        </mxCell>
        <mxCell id="w_f98xdI1Udf6xqhtAm_-94" value="" style="line;html=1;strokeWidth=1;align=left;verticalAlign=middle;spacingTop=-1;spacingLeft=3;spacingRight=3;rotatable=0;labelPosition=right;points=[];portConstraint=eastwest;" parent="w_f98xdI1Udf6xqhtAm_-93" vertex="1">
          <mxGeometry y="26" width="210" height="8" as="geometry" />
        </mxCell>
        <mxCell id="w_f98xdI1Udf6xqhtAm_-100" style="edgeStyle=orthogonalEdgeStyle;rounded=0;orthogonalLoop=1;jettySize=auto;html=1;endArrow=none;endFill=0;" parent="WIyWlLk6GJQsqaUBKTNV-1" edge="1">
          <mxGeometry relative="1" as="geometry">
            <mxPoint x="-1350" y="946" as="targetPoint" />
            <mxPoint x="-1260" y="1223.5" as="sourcePoint" />
          </mxGeometry>
        </mxCell>
        <mxCell id="w_f98xdI1Udf6xqhtAm_-98" value="FMCNetworkObject" style="swimlane;fontStyle=2;align=center;verticalAlign=top;childLayout=stackLayout;horizontal=1;startSize=26;horizontalStack=0;resizeParent=1;resizeLast=0;collapsible=1;marginBottom=0;rounded=0;shadow=0;strokeWidth=1;" parent="WIyWlLk6GJQsqaUBKTNV-1" vertex="1">
          <mxGeometry x="-1260" y="1126" width="200" height="190" as="geometry">
            <mxRectangle x="-1665" y="800" width="160" height="26" as="alternateBounds" />
          </mxGeometry>
        </mxCell>
        <mxCell id="w_f98xdI1Udf6xqhtAm_-99" value="" style="line;html=1;strokeWidth=1;align=left;verticalAlign=middle;spacingTop=-1;spacingLeft=3;spacingRight=3;rotatable=0;labelPosition=right;points=[];portConstraint=eastwest;" parent="w_f98xdI1Udf6xqhtAm_-98" vertex="1">
          <mxGeometry y="26" width="200" height="14" as="geometry" />
        </mxCell>
        <mxCell id="w_f98xdI1Udf6xqhtAm_-101" value="PANPortGroupObject" style="swimlane;fontStyle=2;align=center;verticalAlign=top;childLayout=stackLayout;horizontal=1;startSize=26;horizontalStack=0;resizeParent=1;resizeLast=0;collapsible=1;marginBottom=0;rounded=0;shadow=0;strokeWidth=1;" parent="WIyWlLk6GJQsqaUBKTNV-1" vertex="1">
          <mxGeometry x="-2730" y="1249" width="210" height="210" as="geometry">
            <mxRectangle x="230" y="140" width="160" height="26" as="alternateBounds" />
          </mxGeometry>
        </mxCell>
        <mxCell id="w_f98xdI1Udf6xqhtAm_-102" value="" style="line;html=1;strokeWidth=1;align=left;verticalAlign=middle;spacingTop=-1;spacingLeft=3;spacingRight=3;rotatable=0;labelPosition=right;points=[];portConstraint=eastwest;" parent="w_f98xdI1Udf6xqhtAm_-101" vertex="1">
          <mxGeometry y="26" width="210" height="8" as="geometry" />
        </mxCell>
        <mxCell id="w_f98xdI1Udf6xqhtAm_-109" style="edgeStyle=orthogonalEdgeStyle;rounded=0;orthogonalLoop=1;jettySize=auto;html=1;endArrow=none;endFill=0;" parent="WIyWlLk6GJQsqaUBKTNV-1" source="w_f98xdI1Udf6xqhtAm_-107" edge="1">
          <mxGeometry relative="1" as="geometry">
            <mxPoint x="-2400" y="1356" as="targetPoint" />
          </mxGeometry>
        </mxCell>
        <mxCell id="w_f98xdI1Udf6xqhtAm_-107" value="PolicyPortGroupObject" style="swimlane;fontStyle=2;align=center;verticalAlign=top;childLayout=stackLayout;horizontal=1;startSize=26;horizontalStack=0;resizeParent=1;resizeLast=0;collapsible=1;marginBottom=0;rounded=0;shadow=0;strokeWidth=1;" parent="WIyWlLk6GJQsqaUBKTNV-1" vertex="1">
          <mxGeometry x="-2730" y="1516" width="210" height="210" as="geometry">
            <mxRectangle x="230" y="140" width="160" height="26" as="alternateBounds" />
          </mxGeometry>
        </mxCell>
        <mxCell id="w_f98xdI1Udf6xqhtAm_-108" value="" style="line;html=1;strokeWidth=1;align=left;verticalAlign=middle;spacingTop=-1;spacingLeft=3;spacingRight=3;rotatable=0;labelPosition=right;points=[];portConstraint=eastwest;" parent="w_f98xdI1Udf6xqhtAm_-107" vertex="1">
          <mxGeometry y="26" width="210" height="8" as="geometry" />
        </mxCell>
        <mxCell id="w_f98xdI1Udf6xqhtAm_-126" style="edgeStyle=orthogonalEdgeStyle;rounded=0;orthogonalLoop=1;jettySize=auto;html=1;entryX=0.5;entryY=0;entryDx=0;entryDy=0;endArrow=none;endFill=0;endSize=6;startArrow=diamondThin;startFill=1;startSize=12;exitX=-0.025;exitY=0.594;exitDx=0;exitDy=0;exitPerimeter=0;" parent="WIyWlLk6GJQsqaUBKTNV-1" source="zq6EjepRM1wGPEGo-8lP-1" target="oMcf6_lDviUb3U5oO1b--31" edge="1">
          <mxGeometry relative="1" as="geometry" />
        </mxCell>
        <mxCell id="w_f98xdI1Udf6xqhtAm_-117" value="SecurityDevice(Abstract)" style="swimlane;fontStyle=2;align=center;verticalAlign=top;childLayout=stackLayout;horizontal=1;startSize=26;horizontalStack=0;resizeParent=1;resizeLast=0;collapsible=1;marginBottom=0;rounded=0;shadow=0;strokeWidth=1;" parent="WIyWlLk6GJQsqaUBKTNV-1" vertex="1">
          <mxGeometry x="-1350" y="-210" width="160" height="600" as="geometry">
            <mxRectangle x="230" y="140" width="160" height="26" as="alternateBounds" />
          </mxGeometry>
        </mxCell>
        <mxCell id="zq6EjepRM1wGPEGo-8lP-1" value="#name&lt;br&gt;#sec_policy_package&lt;br&gt;#nat_policy_package&lt;br&gt;#objects_package" style="text;html=1;align=center;verticalAlign=middle;resizable=0;points=[];autosize=1;strokeColor=none;fillColor=none;" parent="w_f98xdI1Udf6xqhtAm_-117" vertex="1">
          <mxGeometry y="26" width="160" height="70" as="geometry" />
        </mxCell>
        <mxCell id="w_f98xdI1Udf6xqhtAm_-118" value="" style="line;html=1;strokeWidth=1;align=left;verticalAlign=middle;spacingTop=-1;spacingLeft=3;spacingRight=3;rotatable=0;labelPosition=right;points=[];portConstraint=eastwest;" parent="w_f98xdI1Udf6xqhtAm_-117" vertex="1">
          <mxGeometry y="96" width="160" height="24" as="geometry" />
        </mxCell>
        <mxCell id="QAnrHoESj-_xnShiMf8R-0" value="&lt;div&gt;+get_name()&lt;/div&gt;&lt;div&gt;+get_policy_package()&lt;/div&gt;&lt;div&gt;+get_policy()&lt;/div&gt;&lt;div&gt;+get_security_zone()&lt;/div&gt;&lt;div&gt;+get_network_object()&lt;/div&gt;&lt;div&gt;+get_network_group()&lt;/div&gt;&lt;div&gt;+get_port()&lt;/div&gt;&lt;div&gt;+get_port_group()&lt;/div&gt;&lt;div&gt;+get_user_source()&lt;/div&gt;&lt;div&gt;+get_url()&lt;/div&gt;&lt;div&gt;+get_l7_application()&lt;/div&gt;&lt;div&gt;&lt;br&gt;&lt;/div&gt;&lt;div&gt;+set_name()&lt;/div&gt;&lt;div&gt;+set_policy_package()&lt;/div&gt;&lt;div&gt;+create_policy_package()&lt;/div&gt;&lt;div&gt;+create_policy()&lt;/div&gt;&lt;div&gt;+create_security_zone()&lt;/div&gt;&lt;div&gt;+create_network_object()&lt;/div&gt;&lt;div&gt;+create_network_group()&lt;/div&gt;&lt;div&gt;+create_port()&lt;/div&gt;&lt;div&gt;+create_port_group()&lt;/div&gt;&lt;div&gt;+create_user_source()&lt;/div&gt;&lt;div&gt;+create_url()&lt;/div&gt;&lt;div&gt;+create_l7_app()&lt;/div&gt;" style="text;html=1;align=center;verticalAlign=middle;resizable=0;points=[];autosize=1;strokeColor=none;fillColor=none;" parent="w_f98xdI1Udf6xqhtAm_-117" vertex="1">
          <mxGeometry y="120" width="160" height="360" as="geometry" />
        </mxCell>
        <mxCell id="w_f98xdI1Udf6xqhtAm_-124" value="should everything be tied up to the device or to the policy?&lt;br&gt;i think it should be tied to the device&lt;br&gt;you should be able to get object info from both policy and from device&lt;br&gt;&lt;br&gt;should there be more UMLs?&lt;br&gt;probably, there should be one UML which contains the items related to objects&lt;br&gt;one UML for all Palo Alto objects&lt;br&gt;one UML for all Cisco objects, etc...&lt;br&gt;&lt;br&gt;i think we will need a llibrary which will have all the functionality&lt;br&gt;used for retrieving the data required for building the classes&lt;br&gt;&lt;br&gt;should we connect directly to the API, or should we pull all the data needed beforehand and use it as a SecurityDevice ?" style="text;html=1;align=center;verticalAlign=middle;resizable=0;points=[];autosize=1;strokeColor=none;fillColor=none;" parent="WIyWlLk6GJQsqaUBKTNV-1" vertex="1">
          <mxGeometry x="-590" y="261" width="660" height="200" as="geometry" />
        </mxCell>
        <mxCell id="w_f98xdI1Udf6xqhtAm_-125" style="edgeStyle=orthogonalEdgeStyle;rounded=0;orthogonalLoop=1;jettySize=auto;html=1;entryX=0.5;entryY=0;entryDx=0;entryDy=0;endArrow=none;endFill=0;startArrow=diamondThin;startFill=1;startSize=12;" parent="WIyWlLk6GJQsqaUBKTNV-1" source="zq6EjepRM1wGPEGo-8lP-1" target="zkfFHV4jXpPFQw0GAbJ--0" edge="1">
          <mxGeometry relative="1" as="geometry">
            <Array as="points">
              <mxPoint x="-1160" y="-95" />
              <mxPoint x="-1160" y="-90" />
              <mxPoint x="-670" y="-90" />
            </Array>
            <mxPoint x="-1180" y="10" as="sourcePoint" />
          </mxGeometry>
        </mxCell>
        <mxCell id="w_f98xdI1Udf6xqhtAm_-129" value="1" style="text;html=1;align=center;verticalAlign=middle;resizable=0;points=[];autosize=1;strokeColor=none;fillColor=none;" parent="WIyWlLk6GJQsqaUBKTNV-1" vertex="1">
          <mxGeometry x="-1380" y="-122" width="30" height="30" as="geometry" />
        </mxCell>
        <mxCell id="w_f98xdI1Udf6xqhtAm_-130" value="0..*" style="text;html=1;align=center;verticalAlign=middle;resizable=0;points=[];autosize=1;strokeColor=none;fillColor=none;" parent="WIyWlLk6GJQsqaUBKTNV-1" vertex="1">
          <mxGeometry x="-1860" y="366" width="40" height="30" as="geometry" />
        </mxCell>
        <mxCell id="w_f98xdI1Udf6xqhtAm_-131" value="1" style="text;html=1;align=center;verticalAlign=middle;resizable=0;points=[];autosize=1;strokeColor=none;fillColor=none;" parent="WIyWlLk6GJQsqaUBKTNV-1" vertex="1">
          <mxGeometry x="-1175" y="-122" width="30" height="30" as="geometry" />
        </mxCell>
        <mxCell id="w_f98xdI1Udf6xqhtAm_-132" value="0..*" style="text;html=1;align=center;verticalAlign=middle;resizable=0;points=[];autosize=1;strokeColor=none;fillColor=none;" parent="WIyWlLk6GJQsqaUBKTNV-1" vertex="1">
          <mxGeometry x="-710" y="-80" width="40" height="30" as="geometry" />
        </mxCell>
        <mxCell id="w_f98xdI1Udf6xqhtAm_-143" value="SecurityDevice can be:&lt;br&gt;a Firewall&lt;br&gt;a FirewallManagementCenter&lt;br&gt;A L3 device capable of running ACLs&lt;br&gt;Not all security devices will have an API, therefore we need to use the configuration file, parse it and implement&lt;br&gt;the same methods, but on the parsed config" style="text;html=1;align=center;verticalAlign=middle;resizable=0;points=[];autosize=1;strokeColor=none;fillColor=none;" parent="WIyWlLk6GJQsqaUBKTNV-1" vertex="1">
          <mxGeometry x="-1545" y="-830" width="610" height="100" as="geometry" />
        </mxCell>
        <mxCell id="w_f98xdI1Udf6xqhtAm_-144" style="edgeStyle=orthogonalEdgeStyle;rounded=0;orthogonalLoop=1;jettySize=auto;html=1;entryX=0.5;entryY=1;entryDx=0;entryDy=0;exitX=0.007;exitY=0.52;exitDx=0;exitDy=0;exitPerimeter=0;endArrow=none;endFill=0;startArrow=block;startFill=0;endSize=5;startSize=12;" parent="WIyWlLk6GJQsqaUBKTNV-1" source="w_f98xdI1Udf6xqhtAm_-20" edge="1">
          <mxGeometry relative="1" as="geometry">
            <mxPoint x="-2210.2" y="460.0100000000002" as="sourcePoint" />
            <mxPoint x="-2320" y="306" as="targetPoint" />
          </mxGeometry>
        </mxCell>
        <mxCell id="w_f98xdI1Udf6xqhtAm_-146" style="edgeStyle=orthogonalEdgeStyle;rounded=0;orthogonalLoop=1;jettySize=auto;html=1;endArrow=none;endFill=0;" parent="WIyWlLk6GJQsqaUBKTNV-1" edge="1">
          <mxGeometry relative="1" as="geometry">
            <mxPoint x="-2517" y="460" as="targetPoint" />
            <mxPoint x="-2957" y="299.9999999999998" as="sourcePoint" />
            <Array as="points">
              <mxPoint x="-2957" y="460" />
            </Array>
          </mxGeometry>
        </mxCell>
        <mxCell id="w_f98xdI1Udf6xqhtAm_-147" style="edgeStyle=orthogonalEdgeStyle;rounded=0;orthogonalLoop=1;jettySize=auto;html=1;endArrow=none;endFill=0;" parent="WIyWlLk6GJQsqaUBKTNV-1" edge="1">
          <mxGeometry relative="1" as="geometry">
            <mxPoint x="-2847" y="460" as="targetPoint" />
            <mxPoint x="-3287" y="299.9999999999998" as="sourcePoint" />
            <Array as="points">
              <mxPoint x="-3287" y="460" />
            </Array>
          </mxGeometry>
        </mxCell>
        <mxCell id="w_f98xdI1Udf6xqhtAm_-148" value="CiscoNATPolicy" style="swimlane;fontStyle=2;align=center;verticalAlign=top;childLayout=stackLayout;horizontal=1;startSize=26;horizontalStack=0;resizeParent=1;resizeLast=0;collapsible=1;marginBottom=0;rounded=0;shadow=0;strokeWidth=1;" parent="WIyWlLk6GJQsqaUBKTNV-1" vertex="1">
          <mxGeometry x="-510" y="1264" width="240" height="260" as="geometry">
            <mxRectangle x="230" y="140" width="160" height="26" as="alternateBounds" />
          </mxGeometry>
        </mxCell>
        <mxCell id="w_f98xdI1Udf6xqhtAm_-149" value="" style="line;html=1;strokeWidth=1;align=left;verticalAlign=middle;spacingTop=-1;spacingLeft=3;spacingRight=3;rotatable=0;labelPosition=right;points=[];portConstraint=eastwest;" parent="w_f98xdI1Udf6xqhtAm_-148" vertex="1">
          <mxGeometry y="26" width="240" height="14" as="geometry" />
        </mxCell>
        <mxCell id="w_f98xdI1Udf6xqhtAm_-151" style="edgeStyle=orthogonalEdgeStyle;rounded=0;orthogonalLoop=1;jettySize=auto;html=1;entryX=0.5;entryY=0;entryDx=0;entryDy=0;endArrow=none;endFill=0;startArrow=block;startFill=0;endSize=12;startSize=12;" parent="WIyWlLk6GJQsqaUBKTNV-1" source="w_f98xdI1Udf6xqhtAm_-11" target="w_f98xdI1Udf6xqhtAm_-12" edge="1">
          <mxGeometry relative="1" as="geometry" />
        </mxCell>
        <mxCell id="w_f98xdI1Udf6xqhtAm_-152" value="TBD" style="text;html=1;align=center;verticalAlign=middle;resizable=0;points=[];autosize=1;strokeColor=none;fillColor=none;" parent="WIyWlLk6GJQsqaUBKTNV-1" vertex="1">
          <mxGeometry x="-695" y="988" width="50" height="30" as="geometry" />
        </mxCell>
        <mxCell id="w_f98xdI1Udf6xqhtAm_-153" value="TBD" style="text;html=1;align=center;verticalAlign=middle;resizable=0;points=[];autosize=1;strokeColor=none;fillColor=none;" parent="WIyWlLk6GJQsqaUBKTNV-1" vertex="1">
          <mxGeometry x="-415" y="1368" width="50" height="30" as="geometry" />
        </mxCell>
        <mxCell id="w_f98xdI1Udf6xqhtAm_-154" value="CiscoNATPolicy" style="swimlane;fontStyle=2;align=center;verticalAlign=top;childLayout=stackLayout;horizontal=1;startSize=26;horizontalStack=0;resizeParent=1;resizeLast=0;collapsible=1;marginBottom=0;rounded=0;shadow=0;strokeWidth=1;" parent="WIyWlLk6GJQsqaUBKTNV-1" vertex="1">
          <mxGeometry x="-510" y="1624" width="240" height="260" as="geometry">
            <mxRectangle x="230" y="140" width="160" height="26" as="alternateBounds" />
          </mxGeometry>
        </mxCell>
        <mxCell id="w_f98xdI1Udf6xqhtAm_-155" value="" style="line;html=1;strokeWidth=1;align=left;verticalAlign=middle;spacingTop=-1;spacingLeft=3;spacingRight=3;rotatable=0;labelPosition=right;points=[];portConstraint=eastwest;" parent="w_f98xdI1Udf6xqhtAm_-154" vertex="1">
          <mxGeometry y="26" width="240" height="14" as="geometry" />
        </mxCell>
        <mxCell id="w_f98xdI1Udf6xqhtAm_-156" value="TBD" style="text;html=1;align=center;verticalAlign=middle;resizable=0;points=[];autosize=1;strokeColor=none;fillColor=none;" parent="WIyWlLk6GJQsqaUBKTNV-1" vertex="1">
          <mxGeometry x="-415" y="1728" width="50" height="30" as="geometry" />
        </mxCell>
        <mxCell id="w_f98xdI1Udf6xqhtAm_-157" style="edgeStyle=orthogonalEdgeStyle;rounded=0;orthogonalLoop=1;jettySize=auto;html=1;endArrow=none;endFill=0;" parent="WIyWlLk6GJQsqaUBKTNV-1" edge="1">
          <mxGeometry relative="1" as="geometry">
            <mxPoint x="-670" y="1380" as="sourcePoint" />
            <mxPoint x="-510" y="1740" as="targetPoint" />
            <Array as="points">
              <mxPoint x="-670" y="1740" />
              <mxPoint x="-510" y="1740" />
            </Array>
          </mxGeometry>
        </mxCell>
        <mxCell id="w_f98xdI1Udf6xqhtAm_-158" value="PATag" style="swimlane;fontStyle=2;align=center;verticalAlign=top;childLayout=stackLayout;horizontal=1;startSize=26;horizontalStack=0;resizeParent=1;resizeLast=0;collapsible=1;marginBottom=0;rounded=0;shadow=0;strokeWidth=1;" parent="WIyWlLk6GJQsqaUBKTNV-1" vertex="1">
          <mxGeometry x="-3647" y="120" width="160" height="220" as="geometry">
            <mxRectangle x="230" y="140" width="160" height="26" as="alternateBounds" />
          </mxGeometry>
        </mxCell>
        <mxCell id="QAnrHoESj-_xnShiMf8R-9" value="#value&lt;br&gt;#color" style="text;html=1;align=center;verticalAlign=middle;resizable=0;points=[];autosize=1;strokeColor=none;fillColor=none;" parent="w_f98xdI1Udf6xqhtAm_-158" vertex="1">
          <mxGeometry y="26" width="160" height="40" as="geometry" />
        </mxCell>
        <mxCell id="w_f98xdI1Udf6xqhtAm_-159" value="" style="line;html=1;strokeWidth=1;align=left;verticalAlign=middle;spacingTop=-1;spacingLeft=3;spacingRight=3;rotatable=0;labelPosition=right;points=[];portConstraint=eastwest;" parent="w_f98xdI1Udf6xqhtAm_-158" vertex="1">
          <mxGeometry y="66" width="160" height="64" as="geometry" />
        </mxCell>
        <mxCell id="QAnrHoESj-_xnShiMf8R-10" value="+get_value()&lt;br&gt;+get_color()&lt;br&gt;&lt;br&gt;+set_value()&lt;br&gt;+set_color()" style="text;html=1;align=center;verticalAlign=middle;resizable=0;points=[];autosize=1;strokeColor=none;fillColor=none;" parent="w_f98xdI1Udf6xqhtAm_-158" vertex="1">
          <mxGeometry y="130" width="160" height="90" as="geometry" />
        </mxCell>
        <mxCell id="w_f98xdI1Udf6xqhtAm_-160" value="The PA Tag is associated with all the PA objects!" style="text;html=1;align=center;verticalAlign=middle;resizable=0;points=[];autosize=1;strokeColor=none;fillColor=none;" parent="WIyWlLk6GJQsqaUBKTNV-1" vertex="1">
          <mxGeometry x="-3717" y="58" width="280" height="30" as="geometry" />
        </mxCell>
        <mxCell id="45cFexuL0E3qlABDtMC0-10" style="edgeStyle=orthogonalEdgeStyle;rounded=0;orthogonalLoop=1;jettySize=auto;html=1;entryX=0.5;entryY=0;entryDx=0;entryDy=0;endArrow=block;endFill=0;endSize=12;" parent="WIyWlLk6GJQsqaUBKTNV-1" source="45cFexuL0E3qlABDtMC0-2" target="w_f98xdI1Udf6xqhtAm_-117" edge="1">
          <mxGeometry relative="1" as="geometry" />
        </mxCell>
        <mxCell id="45cFexuL0E3qlABDtMC0-2" value="APISecurityDevice(Abstract)" style="swimlane;fontStyle=2;align=center;verticalAlign=top;childLayout=stackLayout;horizontal=1;startSize=26;horizontalStack=0;resizeParent=1;resizeLast=0;collapsible=1;marginBottom=0;rounded=0;shadow=0;strokeWidth=1;" parent="WIyWlLk6GJQsqaUBKTNV-1" vertex="1">
          <mxGeometry x="-1620" y="-520" width="160" height="240" as="geometry">
            <mxRectangle x="230" y="140" width="160" height="26" as="alternateBounds" />
          </mxGeometry>
        </mxCell>
        <mxCell id="45cFexuL0E3qlABDtMC0-3" value="&lt;br&gt;#username&lt;br&gt;#ip_address" style="text;html=1;align=center;verticalAlign=middle;resizable=0;points=[];autosize=1;strokeColor=none;fillColor=none;" parent="45cFexuL0E3qlABDtMC0-2" vertex="1">
          <mxGeometry y="26" width="160" height="60" as="geometry" />
        </mxCell>
        <mxCell id="45cFexuL0E3qlABDtMC0-4" value="" style="line;html=1;strokeWidth=1;align=left;verticalAlign=middle;spacingTop=-1;spacingLeft=3;spacingRight=3;rotatable=0;labelPosition=right;points=[];portConstraint=eastwest;" parent="45cFexuL0E3qlABDtMC0-2" vertex="1">
          <mxGeometry y="86" width="160" height="44" as="geometry" />
        </mxCell>
        <mxCell id="45cFexuL0E3qlABDtMC0-5" value="+get_username&lt;br&gt;+get_ip_address&lt;br&gt;&lt;br&gt;+set_username&lt;br&gt;+set_ip_address" style="text;html=1;align=center;verticalAlign=middle;resizable=0;points=[];autosize=1;strokeColor=none;fillColor=none;" parent="45cFexuL0E3qlABDtMC0-2" vertex="1">
          <mxGeometry y="130" width="160" height="90" as="geometry" />
        </mxCell>
        <mxCell id="45cFexuL0E3qlABDtMC0-6" value="ConfigSecurityDevice(Abstract)" style="swimlane;fontStyle=2;align=center;verticalAlign=top;childLayout=stackLayout;horizontal=1;startSize=26;horizontalStack=0;resizeParent=1;resizeLast=0;collapsible=1;marginBottom=0;rounded=0;shadow=0;strokeWidth=1;" parent="WIyWlLk6GJQsqaUBKTNV-1" vertex="1">
          <mxGeometry x="-1100" y="-480" width="170" height="200" as="geometry">
            <mxRectangle x="230" y="140" width="160" height="26" as="alternateBounds" />
          </mxGeometry>
        </mxCell>
        <mxCell id="45cFexuL0E3qlABDtMC0-7" value="#config_file" style="text;html=1;align=center;verticalAlign=middle;resizable=0;points=[];autosize=1;strokeColor=none;fillColor=none;" parent="45cFexuL0E3qlABDtMC0-6" vertex="1">
          <mxGeometry y="26" width="170" height="30" as="geometry" />
        </mxCell>
        <mxCell id="45cFexuL0E3qlABDtMC0-8" value="" style="line;html=1;strokeWidth=1;align=left;verticalAlign=middle;spacingTop=-1;spacingLeft=3;spacingRight=3;rotatable=0;labelPosition=right;points=[];portConstraint=eastwest;" parent="45cFexuL0E3qlABDtMC0-6" vertex="1">
          <mxGeometry y="56" width="170" height="44" as="geometry" />
        </mxCell>
        <mxCell id="45cFexuL0E3qlABDtMC0-13" value="+get_config_file()&lt;br&gt;+set_config_file()&lt;br&gt;+&lt;br&gt;+parse_config_file()" style="text;html=1;align=center;verticalAlign=middle;resizable=0;points=[];autosize=1;strokeColor=none;fillColor=none;" parent="45cFexuL0E3qlABDtMC0-6" vertex="1">
          <mxGeometry y="100" width="170" height="70" as="geometry" />
        </mxCell>
        <mxCell id="45cFexuL0E3qlABDtMC0-12" style="edgeStyle=orthogonalEdgeStyle;rounded=0;orthogonalLoop=1;jettySize=auto;html=1;endArrow=none;endFill=0;" parent="WIyWlLk6GJQsqaUBKTNV-1" source="45cFexuL0E3qlABDtMC0-8" edge="1">
          <mxGeometry relative="1" as="geometry">
            <mxPoint x="-1270" y="-220" as="targetPoint" />
          </mxGeometry>
        </mxCell>
        <mxCell id="45cFexuL0E3qlABDtMC0-15" value="techincally speaking,&lt;br&gt;parsing the config file should be a json&lt;br&gt;if it is not, then we should parse it&lt;br&gt;an API security device and a ConfigSecurityDevice&lt;br&gt;have in common the fact that all the information is a JSON" style="text;html=1;align=center;verticalAlign=middle;resizable=0;points=[];autosize=1;strokeColor=none;fillColor=none;" parent="WIyWlLk6GJQsqaUBKTNV-1" vertex="1">
          <mxGeometry x="-855" y="-480" width="330" height="90" as="geometry" />
        </mxCell>
        <mxCell id="45cFexuL0E3qlABDtMC0-16" value="FMCSecurityDevice" style="swimlane;fontStyle=2;align=center;verticalAlign=top;childLayout=stackLayout;horizontal=1;startSize=26;horizontalStack=0;resizeParent=1;resizeLast=0;collapsible=1;marginBottom=0;rounded=0;shadow=0;strokeWidth=1;" parent="WIyWlLk6GJQsqaUBKTNV-1" vertex="1">
          <mxGeometry x="-1724" y="-740" width="160" height="170" as="geometry">
            <mxRectangle x="230" y="140" width="160" height="26" as="alternateBounds" />
          </mxGeometry>
        </mxCell>
        <mxCell id="45cFexuL0E3qlABDtMC0-18" value="" style="line;html=1;strokeWidth=1;align=left;verticalAlign=middle;spacingTop=-1;spacingLeft=3;spacingRight=3;rotatable=0;labelPosition=right;points=[];portConstraint=eastwest;" parent="45cFexuL0E3qlABDtMC0-16" vertex="1">
          <mxGeometry y="26" width="160" height="44" as="geometry" />
        </mxCell>
        <mxCell id="45cFexuL0E3qlABDtMC0-26" style="edgeStyle=orthogonalEdgeStyle;rounded=0;orthogonalLoop=1;jettySize=auto;html=1;startArrow=none;startFill=0;endArrow=none;endFill=0;" parent="WIyWlLk6GJQsqaUBKTNV-1" source="45cFexuL0E3qlABDtMC0-20" edge="1">
          <mxGeometry relative="1" as="geometry">
            <mxPoint x="-1740" y="-650" as="targetPoint" />
            <Array as="points">
              <mxPoint x="-1740" y="-895" />
            </Array>
          </mxGeometry>
        </mxCell>
        <mxCell id="45cFexuL0E3qlABDtMC0-20" value="PANMCSecurityDevice" style="swimlane;fontStyle=2;align=center;verticalAlign=top;childLayout=stackLayout;horizontal=1;startSize=26;horizontalStack=0;resizeParent=1;resizeLast=0;collapsible=1;marginBottom=0;rounded=0;shadow=0;strokeWidth=1;" parent="WIyWlLk6GJQsqaUBKTNV-1" vertex="1">
          <mxGeometry x="-1724" y="-980" width="160" height="170" as="geometry">
            <mxRectangle x="230" y="140" width="160" height="26" as="alternateBounds" />
          </mxGeometry>
        </mxCell>
        <mxCell id="45cFexuL0E3qlABDtMC0-22" value="" style="line;html=1;strokeWidth=1;align=left;verticalAlign=middle;spacingTop=-1;spacingLeft=3;spacingRight=3;rotatable=0;labelPosition=right;points=[];portConstraint=eastwest;" parent="45cFexuL0E3qlABDtMC0-20" vertex="1">
          <mxGeometry y="26" width="160" height="44" as="geometry" />
        </mxCell>
        <mxCell id="45cFexuL0E3qlABDtMC0-25" style="edgeStyle=orthogonalEdgeStyle;rounded=0;orthogonalLoop=1;jettySize=auto;html=1;entryX=0;entryY=0.5;entryDx=0;entryDy=0;endArrow=none;endFill=0;endSize=6;startArrow=block;startFill=0;strokeWidth=1;startSize=12;" parent="WIyWlLk6GJQsqaUBKTNV-1" source="45cFexuL0E3qlABDtMC0-4" target="45cFexuL0E3qlABDtMC0-16" edge="1">
          <mxGeometry relative="1" as="geometry">
            <mxPoint x="-1810" y="-650" as="targetPoint" />
          </mxGeometry>
        </mxCell>
        <mxCell id="45cFexuL0E3qlABDtMC0-27" value="" style="endArrow=none;dashed=1;html=1;dashPattern=1 3;strokeWidth=2;rounded=0;" parent="WIyWlLk6GJQsqaUBKTNV-1" edge="1">
          <mxGeometry width="50" height="50" relative="1" as="geometry">
            <mxPoint x="-3387" y="620" as="sourcePoint" />
            <mxPoint x="-3387" y="-90" as="targetPoint" />
            <Array as="points">
              <mxPoint x="-3387" y="260" />
            </Array>
          </mxGeometry>
        </mxCell>
        <mxCell id="45cFexuL0E3qlABDtMC0-28" value="on the left: vendor propietary objects" style="text;html=1;align=center;verticalAlign=middle;resizable=0;points=[];autosize=1;strokeColor=none;fillColor=none;" parent="WIyWlLk6GJQsqaUBKTNV-1" vertex="1">
          <mxGeometry x="-3507" y="-142" width="220" height="30" as="geometry" />
        </mxCell>
        <mxCell id="45cFexuL0E3qlABDtMC0-35" value="we have some good libraries already for palo alto and for FMC&lt;br&gt;pan-os-python and fireREST&lt;br&gt;we alos have something to parse config files: NTC templates, confparser (?)" style="text;html=1;align=center;verticalAlign=middle;resizable=0;points=[];autosize=1;strokeColor=none;fillColor=none;" parent="WIyWlLk6GJQsqaUBKTNV-1" vertex="1">
          <mxGeometry x="-1495" y="-917" width="430" height="60" as="geometry" />
        </mxCell>
        <mxCell id="45cFexuL0E3qlABDtMC0-36" value="&amp;lt;-maybe in here we could have all the methods for creating policies/objects" style="text;html=1;align=center;verticalAlign=middle;resizable=0;points=[];autosize=1;strokeColor=none;fillColor=none;" parent="WIyWlLk6GJQsqaUBKTNV-1" vertex="1">
          <mxGeometry x="-1165" y="-192" width="420" height="30" as="geometry" />
        </mxCell>
        <mxCell id="zq6EjepRM1wGPEGo-8lP-0" value="use the ConfigSecurityDevice class to create the classes for the security appliances that don&#39;t have an API" style="text;html=1;align=center;verticalAlign=middle;resizable=0;points=[];autosize=1;strokeColor=none;fillColor=none;" parent="WIyWlLk6GJQsqaUBKTNV-1" vertex="1">
          <mxGeometry x="-910" y="-370" width="590" height="30" as="geometry" />
        </mxCell>
        <mxCell id="hAvmyo3LEqyASL8Jt7Ou-0" value="MigrationProject" style="swimlane;fontStyle=2;align=center;verticalAlign=top;childLayout=stackLayout;horizontal=1;startSize=26;horizontalStack=0;resizeParent=1;resizeLast=0;collapsible=1;marginBottom=0;rounded=0;shadow=0;strokeWidth=1;" parent="WIyWlLk6GJQsqaUBKTNV-1" vertex="1">
          <mxGeometry x="-2170" y="-512" width="178" height="256" as="geometry">
            <mxRectangle x="230" y="140" width="160" height="26" as="alternateBounds" />
          </mxGeometry>
        </mxCell>
        <mxCell id="hAvmyo3LEqyASL8Jt7Ou-6" value="-name&lt;br&gt;-security_devices&lt;br&gt;-project_database" style="text;html=1;align=center;verticalAlign=middle;resizable=0;points=[];autosize=1;strokeColor=none;fillColor=none;" parent="hAvmyo3LEqyASL8Jt7Ou-0" vertex="1">
          <mxGeometry y="26" width="178" height="60" as="geometry" />
        </mxCell>
        <mxCell id="hAvmyo3LEqyASL8Jt7Ou-1" value="" style="line;html=1;strokeWidth=1;align=left;verticalAlign=middle;spacingTop=-1;spacingLeft=3;spacingRight=3;rotatable=0;labelPosition=right;points=[];portConstraint=eastwest;" parent="hAvmyo3LEqyASL8Jt7Ou-0" vertex="1">
          <mxGeometry y="86" width="178" height="10" as="geometry" />
        </mxCell>
        <mxCell id="hAvmyo3LEqyASL8Jt7Ou-7" value="&amp;nbsp;-init(name, security_devices, &lt;br&gt;project_database)&lt;br&gt;&lt;br&gt;+get_name()&lt;br&gt;+get_security_devices()&lt;br&gt;+get_project_database()" style="text;html=1;align=center;verticalAlign=middle;resizable=0;points=[];autosize=1;strokeColor=none;fillColor=none;" parent="hAvmyo3LEqyASL8Jt7Ou-0" vertex="1">
          <mxGeometry y="96" width="178" height="100" as="geometry" />
        </mxCell>
        <mxCell id="hAvmyo3LEqyASL8Jt7Ou-2" value="All objects defined here exist as part of a migration project.&lt;br&gt;Every migration project will have its own databases used for storing&lt;br&gt;policies, objects, groups and so on&lt;br&gt;&lt;br&gt;do we need multiple objects for each database?&lt;br&gt;maybe one object for the database is enough&lt;br&gt;but the database should definitely have tables for each object type" style="text;html=1;align=center;verticalAlign=middle;resizable=0;points=[];autosize=1;strokeColor=none;fillColor=none;" parent="WIyWlLk6GJQsqaUBKTNV-1" vertex="1">
          <mxGeometry x="-2270" y="-660" width="380" height="110" as="geometry" />
        </mxCell>
        <mxCell id="hAvmyo3LEqyASL8Jt7Ou-3" style="edgeStyle=orthogonalEdgeStyle;rounded=0;orthogonalLoop=1;jettySize=auto;html=1;endArrow=diamondThin;endFill=1;endSize=12;startArrow=none;startFill=0;startSize=12;exitX=-0.011;exitY=0.115;exitDx=0;exitDy=0;exitPerimeter=0;" parent="WIyWlLk6GJQsqaUBKTNV-1" edge="1">
          <mxGeometry relative="1" as="geometry">
            <mxPoint x="-1350.7600000000002" y="-142.48000000000027" as="sourcePoint" />
            <mxPoint x="-2093" y="-236.03" as="targetPoint" />
            <Array as="points">
              <mxPoint x="-1419" y="-142.03" />
              <mxPoint x="-1419" y="-138.03" />
              <mxPoint x="-2093" y="-138.03" />
              <mxPoint x="-2093" y="-256.03" />
              <mxPoint x="-2092" y="-256.03" />
            </Array>
          </mxGeometry>
        </mxCell>
        <mxCell id="hAvmyo3LEqyASL8Jt7Ou-4" value="0..*" style="text;html=1;align=center;verticalAlign=middle;resizable=0;points=[];autosize=1;strokeColor=none;fillColor=none;" parent="WIyWlLk6GJQsqaUBKTNV-1" vertex="1">
          <mxGeometry x="-2140" y="-250" width="40" height="30" as="geometry" />
        </mxCell>
        <mxCell id="hAvmyo3LEqyASL8Jt7Ou-5" value="0..*" style="text;html=1;align=center;verticalAlign=middle;resizable=0;points=[];autosize=1;strokeColor=none;fillColor=none;" parent="WIyWlLk6GJQsqaUBKTNV-1" vertex="1">
          <mxGeometry x="-1400" y="-172" width="40" height="30" as="geometry" />
        </mxCell>
        <mxCell id="hAvmyo3LEqyASL8Jt7Ou-8" value="ProjectDatabase" style="swimlane;fontStyle=2;align=center;verticalAlign=top;childLayout=stackLayout;horizontal=1;startSize=26;horizontalStack=0;resizeParent=1;resizeLast=0;collapsible=1;marginBottom=0;rounded=0;shadow=0;strokeWidth=1;" parent="WIyWlLk6GJQsqaUBKTNV-1" vertex="1">
          <mxGeometry x="-1946.5" y="-512" width="165" height="206" as="geometry">
            <mxRectangle x="230" y="140" width="160" height="26" as="alternateBounds" />
          </mxGeometry>
        </mxCell>
        <mxCell id="hAvmyo3LEqyASL8Jt7Ou-9" value="#name" style="text;html=1;align=center;verticalAlign=middle;resizable=0;points=[];autosize=1;strokeColor=none;fillColor=none;" parent="hAvmyo3LEqyASL8Jt7Ou-8" vertex="1">
          <mxGeometry y="26" width="165" height="30" as="geometry" />
        </mxCell>
        <mxCell id="hAvmyo3LEqyASL8Jt7Ou-10" value="" style="line;html=1;strokeWidth=1;align=left;verticalAlign=middle;spacingTop=-1;spacingLeft=3;spacingRight=3;rotatable=0;labelPosition=right;points=[];portConstraint=eastwest;" parent="hAvmyo3LEqyASL8Jt7Ou-8" vertex="1">
          <mxGeometry y="56" width="165" height="10" as="geometry" />
        </mxCell>
        <mxCell id="hAvmyo3LEqyASL8Jt7Ou-11" value="TBD" style="text;html=1;align=center;verticalAlign=middle;resizable=0;points=[];autosize=1;strokeColor=none;fillColor=none;" parent="hAvmyo3LEqyASL8Jt7Ou-8" vertex="1">
          <mxGeometry y="66" width="165" height="30" as="geometry" />
        </mxCell>
        <mxCell id="hAvmyo3LEqyASL8Jt7Ou-12" style="edgeStyle=orthogonalEdgeStyle;rounded=0;orthogonalLoop=1;jettySize=auto;html=1;entryX=0.997;entryY=0.059;entryDx=0;entryDy=0;entryPerimeter=0;endArrow=diamondThin;endFill=1;startSize=7;endSize=12;" parent="WIyWlLk6GJQsqaUBKTNV-1" source="hAvmyo3LEqyASL8Jt7Ou-8" target="hAvmyo3LEqyASL8Jt7Ou-7" edge="1">
          <mxGeometry relative="1" as="geometry" />
        </mxCell>
        <mxCell id="hAvmyo3LEqyASL8Jt7Ou-13" value="1" style="text;html=1;align=center;verticalAlign=middle;resizable=0;points=[];autosize=1;strokeColor=none;fillColor=none;" parent="WIyWlLk6GJQsqaUBKTNV-1" vertex="1">
          <mxGeometry x="-2005" y="-400" width="30" height="30" as="geometry" />
        </mxCell>
        <mxCell id="hAvmyo3LEqyASL8Jt7Ou-14" value="1" style="text;html=1;align=center;verticalAlign=middle;resizable=0;points=[];autosize=1;strokeColor=none;fillColor=none;" parent="WIyWlLk6GJQsqaUBKTNV-1" vertex="1">
          <mxGeometry x="-1975" y="-440" width="30" height="30" as="geometry" />
        </mxCell>
      </root>
    </mxGraphModel>
  </diagram>
</mxfile>
